<?xml version="1.0" encoding="iso-8859-1"?>
<!-- Generator: Adobe Illustrator 19.0.0, SVG Export Plug-In . SVG Version: 6.00 Build 0)  -->
<svg version="1.1" id="Layer_1" xmlns="http://www.w3.org/2000/svg" xmlns:xlink="http://www.w3.org/1999/xlink" x="0px" y="0px"
	 viewBox="0 0 504 504" style="enable-background:new 0 0 504 504;" xml:space="preserve">
<path style="fill:#F4EFEF;" d="M347.8,4h-276c-8,0-18,8.4-18,16v464c0,7.6,10.4,16,18,16h364.8c7.6,0,13.2-8,13.2-16V108L347.8,4z"
	/>
<path style="fill:#D8D8D8;" d="M344.6,8.4V10v71.2c0,13.6,15.2,26.8,28.8,26.8h72.4L344.6,8.4z"/>
<path style="fill:#FFC52F;" d="M233.8,44v48c0,10.8,9.2,19.6,20,19.6s20-8.8,20-19.6V44H233.8z"/>
<path d="M249.8,115.6c-13.2,0-24-10.8-24-23.6V48c0-2.4,1.6-4,4-4h40c2.4,0,4,1.6,4,4v44C273.8,105.2,263,115.6,249.8,115.6z
	 M233.8,52v40c0,8.8,7.2,15.6,16,15.6s16-7.2,16-15.6V52H233.8z"/>
<path d="M249.8,48c-2.4,0-4-1.6-4-4V4c0-2.4,1.6-4,4-4s4,1.6,4,4v40C253.8,46.4,251.8,48,249.8,48z"/>
<path d="M249.8,472c-2.4,0-4-1.6-4-4V112c0-2.4,1.6-4,4-4s4,1.6,4,4v356C253.8,470.4,251.8,472,249.8,472z"/>
<path d="M249.8,332h-16c-2.4,0-4-1.6-4-4s1.6-4,4-4h16c2.4,0,4,1.6,4,4S251.8,332,249.8,332z"/>
<path d="M269.8,324h-16c-2.4,0-4-1.6-4-4s1.6-4,4-4h16c2.4,0,4,1.6,4,4S271.8,324,269.8,324z"/>
<path d="M249.8,316h-16c-2.4,0-4-1.6-4-4s1.6-4,4-4h16c2.4,0,4,1.6,4,4S251.8,316,249.8,316z"/>
<path d="M269.8,308h-16c-2.4,0-4-1.6-4-4s1.6-4,4-4h16c2.4,0,4,1.6,4,4S271.8,308,269.8,308z"/>
<path d="M249.8,364h-16c-2.4,0-4-1.6-4-4s1.6-4,4-4h16c2.4,0,4,1.6,4,4S251.8,364,249.8,364z"/>
<path d="M269.8,356h-16c-2.4,0-4-1.6-4-4s1.6-4,4-4h16c2.4,0,4,1.6,4,4S271.8,356,269.8,356z"/>
<path d="M249.8,348h-16c-2.4,0-4-1.6-4-4s1.6-4,4-4h16c2.4,0,4,1.6,4,4S251.8,348,249.8,348z"/>
<path d="M269.8,340h-16c-2.4,0-4-1.6-4-4s1.6-4,4-4h16c2.4,0,4,1.6,4,4S271.8,340,269.8,340z"/>
<path d="M249.8,300h-16c-2.4,0-4-1.6-4-4s1.6-4,4-4h16c2.4,0,4,1.6,4,4S251.8,300,249.8,300z"/>
<path d="M269.8,292h-16c-2.4,0-4-1.6-4-4s1.6-4,4-4h16c2.4,0,4,1.6,4,4S271.8,292,269.8,292z"/>
<path d="M249.8,284h-16c-2.4,0-4-1.6-4-4s1.6-4,4-4h16c2.4,0,4,1.6,4,4S251.8,284,249.8,284z"/>
<path d="M269.8,276h-16c-2.4,0-4-1.6-4-4s1.6-4,4-4h16c2.4,0,4,1.6,4,4S271.8,276,269.8,276z"/>
<path d="M249.8,268h-16c-2.4,0-4-1.6-4-4s1.6-4,4-4h16c2.4,0,4,1.6,4,4S251.8,268,249.8,268z"/>
<path d="M269.8,260h-16c-2.4,0-4-1.6-4-4s1.6-4,4-4h16c2.4,0,4,1.6,4,4S271.8,260,269.8,260z"/>
<path d="M249.8,444h-16c-2.4,0-4-1.6-4-4s1.6-4,4-4h16c2.4,0,4,1.6,4,4S251.8,444,249.8,444z"/>
<path d="M269.8,436h-16c-2.4,0-4-1.6-4-4s1.6-4,4-4h16c2.4,0,4,1.6,4,4S271.8,436,269.8,436z"/>
<path d="M249.8,428h-16c-2.4,0-4-1.6-4-4s1.6-4,4-4h16c2.4,0,4,1.6,4,4S251.8,428,249.8,428z"/>
<path d="M269.8,420h-16c-2.4,0-4-1.6-4-4s1.6-4,4-4h16c2.4,0,4,1.6,4,4S271.8,420,269.8,420z"/>
<path d="M249.8,460h-16c-2.4,0-4-1.6-4-4s1.6-4,4-4h16c2.4,0,4,1.6,4,4S251.8,460,249.8,460z"/>
<path d="M269.8,452h-16c-2.4,0-4-1.6-4-4s1.6-4,4-4h16c2.4,0,4,1.6,4,4S271.8,452,269.8,452z"/>
<path d="M249.8,412h-16c-2.4,0-4-1.6-4-4s1.6-4,4-4h16c2.4,0,4,1.6,4,4S251.8,412,249.8,412z"/>
<path d="M269.8,404h-16c-2.4,0-4-1.6-4-4s1.6-4,4-4h16c2.4,0,4,1.6,4,4S271.8,404,269.8,404z"/>
<path d="M249.8,396h-16c-2.4,0-4-1.6-4-4s1.6-4,4-4h16c2.4,0,4,1.6,4,4S251.8,396,249.8,396z"/>
<path d="M269.8,388h-16c-2.4,0-4-1.6-4-4s1.6-4,4-4h16c2.4,0,4,1.6,4,4S271.8,388,269.8,388z"/>
<path d="M249.8,380h-16c-2.4,0-4-1.6-4-4s1.6-4,4-4h16c2.4,0,4,1.6,4,4S251.8,380,249.8,380z"/>
<path d="M269.8,372h-16c-2.4,0-4-1.6-4-4s1.6-4,4-4h16c2.4,0,4,1.6,4,4S271.8,372,269.8,372z"/>
<path d="M249.8,252h-16c-2.4,0-4-1.6-4-4s1.6-4,4-4h16c2.4,0,4,1.6,4,4S251.8,252,249.8,252z"/>
<path d="M269.8,244h-16c-2.4,0-4-1.6-4-4s1.6-4,4-4h16c2.4,0,4,1.6,4,4S271.8,244,269.8,244z"/>
<path d="M249.8,236h-16c-2.4,0-4-1.6-4-4s1.6-4,4-4h16c2.4,0,4,1.6,4,4S251.8,236,249.8,236z"/>
<path d="M269.8,228h-16c-2.4,0-4-1.6-4-4s1.6-4,4-4h16c2.4,0,4,1.6,4,4S271.8,228,269.8,228z"/>
<path d="M249.8,220h-16c-2.4,0-4-1.6-4-4s1.6-4,4-4h16c2.4,0,4,1.6,4,4S251.8,220,249.8,220z"/>
<path d="M269.8,212h-16c-2.4,0-4-1.6-4-4s1.6-4,4-4h16c2.4,0,4,1.6,4,4S271.8,212,269.8,212z"/>
<path d="M249.8,204h-16c-2.4,0-4-1.6-4-4s1.6-4,4-4h16c2.4,0,4,1.6,4,4S251.8,204,249.8,204z"/>
<path d="M269.8,196h-16c-2.4,0-4-1.6-4-4s1.6-4,4-4h16c2.4,0,4,1.6,4,4S271.8,196,269.8,196z"/>
<path d="M249.8,188h-16c-2.4,0-4-1.6-4-4s1.6-4,4-4h16c2.4,0,4,1.6,4,4S251.8,188,249.8,188z"/>
<path d="M269.8,180h-16c-2.4,0-4-1.6-4-4s1.6-4,4-4h16c2.4,0,4,1.6,4,4S271.8,180,269.8,180z"/>
<path d="M249.8,172h-16c-2.4,0-4-1.6-4-4s1.6-4,4-4h16c2.4,0,4,1.6,4,4S251.8,172,249.8,172z"/>
<path d="M269.8,164h-16c-2.4,0-4-1.6-4-4s1.6-4,4-4h16c2.4,0,4,1.6,4,4S271.8,164,269.8,164z"/>
<path d="M249.8,156h-16c-2.4,0-4-1.6-4-4s1.6-4,4-4h16c2.4,0,4,1.6,4,4S251.8,156,249.8,156z"/>
<path d="M269.8,148h-16c-2.4,0-4-1.6-4-4s1.6-4,4-4h16c2.4,0,4,1.6,4,4S271.8,148,269.8,148z"/>
<path d="M431.8,504H71c-10.8,0-19.2-8.8-19.2-20V20C51.8,8.8,60.2,0,71,0h272c1.2,0,2,0.4,2.8,1.2l105.2,104
	c0.8,0.8,1.2,1.6,1.2,2.8v376C452.2,495.2,443,504,431.8,504z M71,8c-6.4,0-11.2,5.2-11.2,12v464c0,6.8,4.8,12,11.2,12h360.8
	c6.8,0,12.4-5.6,12.4-12V109.6L341.4,8H71z"/>
<path d="M412.2,112h-38.4c-16.8,0-33.6-17.6-33.6-34.8V8c0-2.4,1.6-4,4-4s4,1.6,4,4v69.2c0,12.8,13.6,26.8,25.6,26.8h38.4
	c2.4,0,4,1.6,4,4S414.6,112,412.2,112z"/>
<g>
</g>
<g>
</g>
<g>
</g>
<g>
</g>
<g>
</g>
<g>
</g>
<g>
</g>
<g>
</g>
<g>
</g>
<g>
</g>
<g>
</g>
<g>
</g>
<g>
</g>
<g>
</g>
<g>
</g>
</svg>
